Coordinates
version=1
nRows=60
nColumns=12
inDegrees=yes

Units are S.I. units (second, meters, Newtons, ...)
Angles are in degrees

endheader
time	SC_y	SC_z	SC_x	AC_y	AC_z	AC_x	GH_y	GH_z	GH_yy	EL_x	PS_y
       0.0              -53.16          14.95          56.82          51.31         -3.298          5.508         -114.7          57.93         -37.11          98.69          132.3
   0.04583              -53.15          14.95          56.82          51.31           -3.3          5.507         -114.7          57.93         -37.11          98.69          132.3
   0.09166              -53.15          14.95          56.82          51.31         -3.301          5.506         -114.7          57.93          -37.1          98.69          132.3
    0.1375              -53.14          14.94          56.81          51.31         -3.303          5.505         -114.7          57.93          -37.1          98.69          132.3
    0.1833              -53.14          14.94          56.81          51.31         -3.305          5.504         -114.7          57.93         -37.09          98.69          132.3
    0.2292              -53.13          14.94           56.8          51.32         -3.307          5.503         -114.7          57.94         -37.08          98.69          132.3
     0.275              -53.12          14.93           56.8          51.32         -3.309          5.501         -114.7          57.94         -37.08          98.69          132.3
    0.3208              -53.12          14.93          56.79          51.32         -3.311            5.5         -114.7          57.94         -37.07          98.68          132.3
    0.3666              -53.11          14.93          56.78          51.32         -3.313          5.499         -114.8          57.94         -37.06          98.68          132.3
    0.4125               -53.1          14.92          56.78          51.32         -3.316          5.497         -114.8          57.94         -37.05          98.68          132.3
    0.4583              -53.09          14.92          56.77          51.32         -3.318          5.495         -114.8          57.94         -37.05          98.68          132.3
    0.5041              -53.08          14.91          56.76          51.32         -3.321          5.494         -114.8          57.95         -37.04          98.68          132.3
      0.55              -53.07          14.91          56.75          51.32         -3.324          5.492         -114.8          57.95         -37.03          98.68          132.3
    0.5958              -53.06           14.9          56.74          51.32         -3.328           5.49         -114.8          57.95         -37.01          98.67          132.3
    0.6416              -53.05           14.9          56.73          51.32         -3.331          5.487         -114.9          57.95          -37.0          98.67          132.3
    0.6875              -53.03          14.89          56.72          51.32         -3.335          5.485         -114.9          57.96         -36.99          98.67          132.3
    0.7333              -53.02          14.88          56.71          51.32          -3.34          5.482         -114.9          57.96         -36.98          98.67          132.3
    0.7791               -53.0          14.87           56.7          51.32         -3.344           5.48         -114.9          57.96         -36.96          98.66          132.3
    0.8249              -52.99          14.87          56.68          51.32         -3.349          5.476         -115.0          57.97         -36.94          98.66          132.3
    0.8708              -52.97          14.86          56.67          51.32         -3.355          5.473         -115.0          57.97         -36.92          98.66          132.3
    0.9166              -52.95          14.85          56.65          51.33         -3.361          5.469         -115.0          57.97          -36.9          98.65          132.3
    0.9624              -52.93          14.83          56.63          51.33         -3.368          5.465         -115.1          57.98         -36.88          98.65          132.3
     1.008               -52.9          14.82          56.61          51.33         -3.375          5.461         -115.1          57.98         -36.86          98.64          132.3
     1.054              -52.87          14.81          56.59          51.33         -3.384          5.456         -115.2          57.99         -36.83          98.64          132.3
       1.1              -52.84          14.79          56.56          51.33         -3.393           5.45         -115.2           58.0          -36.8          98.63          132.3
     1.146              -52.81          14.78          56.54          51.33         -3.403          5.444         -115.3           58.0         -36.77          98.62          132.3
     1.192              -52.77          14.76           56.5          51.33         -3.415          5.437         -115.4          58.01         -36.73          98.62          132.3
     1.237              -52.73          14.74          56.47          51.34         -3.427          5.429         -115.4          58.02         -36.69          98.61          132.3
     1.283              -52.68          14.71          56.43          51.34         -3.442           5.42         -115.5          58.03         -36.64           98.6          132.3
     1.329              -52.63          14.68          56.38          51.34         -3.459           5.41         -115.6          58.04         -36.58          98.59          132.3
     1.375              -52.56          14.65          56.33          51.35         -3.478          5.398         -115.7          58.06         -36.52          98.58          132.3
     1.421              -52.49          14.62          56.27          51.35         -3.499          5.385         -115.9          58.07         -36.45          98.56          132.3
     1.467              -52.41          14.57           56.2          51.35         -3.524          5.369         -116.0          58.09         -36.37          98.55          132.3
     1.512              -52.31          14.52          56.12          51.36         -3.553          5.352         -116.2          58.11         -36.27          98.53          132.3
     1.558               -52.2          14.47          56.03          51.37         -3.587          5.331         -116.4          58.14         -36.16          98.51          132.3
     1.604              -52.06           14.4          55.92          51.37         -3.628          5.306         -116.6          58.17         -36.03          98.48          132.3
      1.65              -51.91          14.32          55.78          51.38         -3.675          5.277         -116.9           58.2         -35.87          98.45          132.3
     1.696              -51.72          14.23          55.63          51.39         -3.733          5.242         -117.2          58.24         -35.68          98.41          132.3
     1.742              -51.49          14.11          55.44          51.41         -3.802          5.199         -117.6          58.29         -35.45          98.37          132.3
     1.787              -51.21          13.97           55.2          51.42         -3.886          5.148         -118.1          58.35         -35.17          98.31          132.3
     1.833              -50.86          13.79          54.91          51.44         -3.991          5.084         -118.7          58.43         -34.83          98.25          132.3
     1.879              -50.43          13.58          54.55          51.46         -4.121          5.004         -119.5          58.52          -34.4          98.16          132.3
     1.925              -49.88           13.3           54.1          51.49         -4.285          4.904         -120.5          58.64         -33.86          98.06          132.3
     1.971              -49.19          12.96          53.53          51.53         -4.493          4.776         -121.7          58.79         -33.17          97.92          132.2
     2.017              -48.31          12.51          52.79          51.58          -4.76          4.612         -123.3          58.98         -32.29          97.75          132.2
     2.062              -47.17          11.94          51.85          51.64         -5.102          4.403         -125.3          59.23         -31.16          97.53          132.2
     2.108              -45.72          11.21          50.64          51.72         -5.539          4.135         -127.9          59.54         -29.72          97.25          132.2
     2.154               -43.9          10.29          49.12          51.82         -6.089          3.798         -131.1          59.93         -27.91           96.9          132.2
       2.2              -41.68          9.174          47.27          51.94         -6.759          3.388         -135.1          60.42          -25.7          96.46          132.2
     2.246               -39.1          7.878          45.13          52.08         -7.535          2.912         -139.7          60.97         -23.13          95.96          132.2
     2.292              -36.31          6.474          42.81          52.24         -8.376          2.397         -144.6          61.58         -20.36          95.42          132.2
     2.337              -33.52          5.071          40.49          52.39         -9.217          1.882         -149.6          62.18         -17.59          94.88          132.2
     2.383              -30.94          3.775          38.34          52.53         -9.993          1.406         -154.2          62.74         -15.03          94.38          132.2
     2.429              -28.72          2.656          36.49          52.65         -10.66          0.996         -158.1          63.22         -12.82          93.95          132.2
     2.475               -26.9          1.739          34.98          52.75         -11.21         0.6592         -161.3          63.62          -11.0           93.6          132.2
     2.521              -25.45          1.009          33.77          52.83         -11.65         0.3914         -163.9          63.93         -9.561          93.31          132.2
     2.566              -24.31         0.4375          32.82          52.89         -11.99         0.1817         -165.9          64.18         -8.432          93.09          132.2
     2.612              -23.42      -0.007759          32.09          52.94         -12.26        0.01833         -167.5          64.37         -7.552          92.92          132.2
     2.658              -22.73        -0.3556          31.51          52.98         -12.47        -0.1093         -168.7          64.52         -6.865          92.79          132.2
     2.704              -22.19        -0.6292          31.06          53.01         -12.63        -0.2097         -169.7          64.63         -6.324          92.68          132.2
